<svg width="240" height="240" viewBox="0 0 240 240" fill="none" xmlns="http://www.w3.org/2000/svg"><g filter="url(#filter0_i_1460_7107)"><path d="M120 240L12.4141 186.207V53.793L120 107.586V240Z" fill="#C8C8C8"></path><path d="M120 240L12.4141 186.207V53.793L120 107.586V240Z" fill="#2B99FF" fill-opacity="0.05"></path></g><g filter="url(#filter1_i_1460_7107)"><path d="M120 240L227.586 186.207V53.793L120 107.586V240Z" fill="#969696"></path><path d="M120 240L227.586 186.207V53.793L120 107.586V240Z" fill="#2B99FF" fill-opacity="0.05"></path></g><g filter="url(#filter2_i_1460_7107)"><path d="M12.4141 53.7931L115.862 0L227.586 53.7931L120 107.586L12.4141 53.7931Z" fill="#B5B5B5"></path><path d="M12.4141 53.7931L115.862 0L227.586 53.7931L120 107.586L12.4141 53.7931Z" fill="#2B99FF" fill-opacity="0.05"></path></g><mask id="path-4-inside-1_1460_7107" fill="white"><path fill-rule="evenodd" clip-rule="evenodd" d="M12.4141 53.7931V53.793L12.4142 53.793L115.862 0L227.586 53.793L227.586 53.7931L227.586 53.7932V186.207L120 240H120L12.4141 186.207V53.7931Z"></path></mask><path d="M12.4141 53.793L12.858 52.8969L11.4141 52.1815V53.793H12.4141ZM12.4142 53.793L11.9703 54.6891L12.4251 54.9145L12.8755 54.6803L12.4142 53.793ZM115.862 0L116.296 -0.901002L115.845 -1.11817L115.401 -0.887217L115.862 0ZM227.586 53.793L228.023 52.8936L228.02 52.892L227.586 53.793ZM227.586 53.7931L228.034 54.6875L229.848 53.7805L228.024 52.8937L227.586 53.7931ZM227.586 53.7932L227.139 52.8988L226.586 53.1752V53.7932H227.586ZM227.586 186.207L228.033 187.101L228.586 186.825V186.207H227.586ZM120 240V241H120.236L120.447 240.894L120 240ZM120 240L119.553 240.894L119.764 241H120V240ZM12.4141 186.207H11.4141V186.825L11.9668 187.101L12.4141 186.207ZM11.4141 53.793V53.7931H13.4141V53.793H11.4141ZM12.8581 52.897L12.858 52.8969L11.9701 54.689L11.9703 54.6891L12.8581 52.897ZM12.8755 54.6803L116.324 0.887217L115.401 -0.887217L11.9528 52.9058L12.8755 54.6803ZM115.429 0.901002L227.152 54.694L228.02 52.892L116.296 -0.901002L115.429 0.901002ZM227.149 54.6923L227.149 54.6925L228.024 52.8937L228.023 52.8936L227.149 54.6923ZM227.139 52.8987L227.139 52.8988L228.033 54.6877L228.034 54.6875L227.139 52.8987ZM228.586 186.207V53.7932H226.586V186.207H228.586ZM120.447 240.894L228.033 187.101L227.139 185.312L119.553 239.105L120.447 240.894ZM120 241H120V239H120V241ZM11.9668 187.101L119.553 240.894L120.447 239.105L12.8613 185.312L11.9668 187.101ZM11.4141 53.7931V186.207H13.4141V53.7931H11.4141Z" fill="white" mask="url(#path-4-inside-1_1460_7107)"></path><line x1="120.031" y1="107.141" x2="120.031" y2="239.625" stroke="white"></line><line x1="227.223" y1="54.01" x2="119.754" y2="107.588" stroke="white"></line><line y1="-0.5" x2="120.084" y2="-0.5" transform="matrix(0.894947 0.446172 0.446172 -0.894947 12.7998 53.5625)" stroke="white"></line><defs><filter id="filter0_i_1460_7107" x="12.4141" y="53.793" width="107.586" height="186.207" filterUnits="userSpaceOnUse" color-interpolation-filters="sRGB"><feFlood flood-opacity="0" result="BackgroundImageFix"></feFlood><feBlend mode="normal" in="SourceGraphic" in2="BackgroundImageFix" result="shape"></feBlend><feColorMatrix in="SourceAlpha" type="matrix" values="0 0 0 0 0 0 0 0 0 0 0 0 0 0 0 0 0 0 127 0" result="hardAlpha"></feColorMatrix><feOffset></feOffset><feGaussianBlur stdDeviation="12"></feGaussianBlur><feComposite in2="hardAlpha" operator="arithmetic" k2="-1" k3="1"></feComposite><feColorMatrix type="matrix" values="0 0 0 0 1 0 0 0 0 1 0 0 0 0 1 0 0 0 1 0"></feColorMatrix><feBlend mode="normal" in2="shape" result="effect1_innerShadow_1460_7107"></feBlend></filter><filter id="filter1_i_1460_7107" x="120" y="53.793" width="107.586" height="186.207" filterUnits="userSpaceOnUse" color-interpolation-filters="sRGB"><feFlood flood-opacity="0" result="BackgroundImageFix"></feFlood><feBlend mode="normal" in="SourceGraphic" in2="BackgroundImageFix" result="shape"></feBlend><feColorMatrix in="SourceAlpha" type="matrix" values="0 0 0 0 0 0 0 0 0 0 0 0 0 0 0 0 0 0 127 0" result="hardAlpha"></feColorMatrix><feOffset></feOffset><feGaussianBlur stdDeviation="12"></feGaussianBlur><feComposite in2="hardAlpha" operator="arithmetic" k2="-1" k3="1"></feComposite><feColorMatrix type="matrix" values="0 0 0 0 1 0 0 0 0 1 0 0 0 0 1 0 0 0 0.4 0"></feColorMatrix><feBlend mode="normal" in2="shape" result="effect1_innerShadow_1460_7107"></feBlend></filter><filter id="filter2_i_1460_7107" x="12.4141" y="0" width="215.173" height="107.586" filterUnits="userSpaceOnUse" color-interpolation-filters="sRGB"><feFlood flood-opacity="0" result="BackgroundImageFix"></feFlood><feBlend mode="normal" in="SourceGraphic" in2="BackgroundImageFix" result="shape"></feBlend><feColorMatrix in="SourceAlpha" type="matrix" values="0 0 0 0 0 0 0 0 0 0 0 0 0 0 0 0 0 0 127 0" result="hardAlpha"></feColorMatrix><feOffset></feOffset><feGaussianBlur stdDeviation="12"></feGaussianBlur><feComposite in2="hardAlpha" operator="arithmetic" k2="-1" k3="1"></feComposite><feColorMatrix type="matrix" values="0 0 0 0 1 0 0 0 0 1 0 0 0 0 1 0 0 0 0.6 0"></feColorMatrix><feBlend mode="normal" in2="shape" result="effect1_innerShadow_1460_7107"></feBlend></filter></defs></svg>
